<svg width="172" height="57" viewBox="0 0 172 57" fill="none" xmlns="http://www.w3.org/2000/svg">
<path d="M1.3822 20.992C1.7422 19 2.4622 17.236 3.5422 15.7C4.6462 14.164 5.9902 12.976 7.5742 12.136C9.1582 11.272 10.8142 10.84 12.5422 10.84C14.1022 10.84 15.4102 11.152 16.4662 11.776C17.5222 12.376 18.3142 13.132 18.8422 14.044L19.3462 11.164H23.4862L19.9942 31H15.8542L16.3942 28.048C15.5302 28.984 14.4382 29.764 13.1182 30.388C11.8222 31.012 10.4062 31.324 8.8702 31.324C7.3822 31.324 6.0502 30.988 4.8742 30.316C3.7222 29.644 2.8102 28.696 2.1382 27.472C1.4902 26.224 1.1662 24.796 1.1662 23.188C1.1662 22.468 1.2382 21.736 1.3822 20.992ZM17.6182 21.064C17.7142 20.608 17.7622 20.116 17.7622 19.588C17.7622 17.98 17.2822 16.72 16.3222 15.808C15.3862 14.872 14.2102 14.404 12.7942 14.404C11.7382 14.404 10.7062 14.668 9.6982 15.196C8.6902 15.7 7.8142 16.456 7.0702 17.464C6.3262 18.448 5.8342 19.624 5.5942 20.992C5.4982 21.448 5.4502 21.94 5.4502 22.468C5.4502 24.1 5.9182 25.396 6.8542 26.356C7.8142 27.292 9.0022 27.76 10.4182 27.76C11.4742 27.76 12.5062 27.496 13.5142 26.968C14.5222 26.44 15.3982 25.672 16.1422 24.664C16.8862 23.632 17.3782 22.432 17.6182 21.064ZM32.4766 14.116C33.3406 13.156 34.4326 12.376 35.7526 11.776C37.0726 11.152 38.4766 10.84 39.9646 10.84C41.5006 10.84 42.8446 11.164 43.9966 11.812C45.1726 12.46 46.0846 13.384 46.7326 14.584C47.3806 15.76 47.7046 17.152 47.7046 18.76C47.7046 19.456 47.6326 20.2 47.4886 20.992C47.1286 22.984 46.3966 24.772 45.2926 26.356C44.2126 27.916 42.8806 29.14 41.2966 30.028C39.7366 30.892 38.0926 31.324 36.3646 31.324C34.8286 31.324 33.5206 31.024 32.4406 30.424C31.3606 29.824 30.5446 29.056 29.9926 28.12L29.4886 31H25.3846L30.1006 4.36H34.2046L32.4766 14.116ZM43.3126 20.992C43.4086 20.536 43.4566 20.044 43.4566 19.516C43.4566 17.908 42.9766 16.66 42.0166 15.772C41.0806 14.86 39.8926 14.404 38.4526 14.404C37.4206 14.404 36.3886 14.668 35.3566 15.196C34.3486 15.724 33.4726 16.492 32.7286 17.5C31.9846 18.508 31.4926 19.696 31.2526 21.064C31.1566 21.52 31.1086 22.012 31.1086 22.54C31.1086 24.148 31.5766 25.42 32.5126 26.356C33.4726 27.292 34.6606 27.76 36.0766 27.76C37.1326 27.76 38.1646 27.496 39.1726 26.968C40.2046 26.416 41.0926 25.624 41.8366 24.592C42.5806 23.56 43.0726 22.36 43.3126 20.992ZM63.6071 10.84C65.5991 10.84 67.1951 11.404 68.3951 12.532C69.5951 13.636 70.1951 15.22 70.1951 17.284C70.1951 17.836 70.1351 18.508 70.0151 19.3L67.9271 31H63.8591L65.8391 19.912C65.9351 19.24 65.9831 18.76 65.9831 18.472C65.9831 17.152 65.6111 16.144 64.8671 15.448C64.1471 14.752 63.1391 14.404 61.8431 14.404C60.2831 14.404 58.9631 14.884 57.8831 15.844C56.8271 16.78 56.1551 18.136 55.8671 19.912V19.84L53.8871 31H49.7831L54.4991 4.36H58.6031L56.9831 13.468C57.8231 12.628 58.8191 11.98 59.9711 11.524C61.1231 11.068 62.3351 10.84 63.6071 10.84ZM79.21 8.536C78.562 8.536 78.034 8.332 77.626 7.924C77.218 7.516 77.014 7 77.014 6.376C77.014 5.536 77.326 4.816 77.95 4.216C78.598 3.592 79.33 3.28 80.146 3.28C80.794 3.28 81.31 3.484 81.694 3.892C82.102 4.3 82.306 4.816 82.306 5.44C82.306 6.28 81.994 7.012 81.37 7.636C80.746 8.236 80.026 8.536 79.21 8.536ZM80.758 11.164L77.266 31H73.162L76.654 11.164H80.758ZM113.434 5.98L109.006 31H104.902L107.926 13.864L97.2702 31H94.4262L89.7822 13.864L86.7582 31H82.6542L87.0822 5.98H91.5102L96.8382 25.6L109.042 5.98H113.434ZM114.796 20.992C115.156 19 115.876 17.236 116.956 15.7C118.06 14.164 119.404 12.976 120.988 12.136C122.572 11.272 124.228 10.84 125.956 10.84C127.516 10.84 128.824 11.152 129.88 11.776C130.936 12.376 131.728 13.132 132.256 14.044L132.76 11.164H136.9L133.408 31H129.268L129.808 28.048C128.944 28.984 127.852 29.764 126.532 30.388C125.236 31.012 123.82 31.324 122.284 31.324C120.796 31.324 119.464 30.988 118.288 30.316C117.136 29.644 116.224 28.696 115.552 27.472C114.904 26.224 114.58 24.796 114.58 23.188C114.58 22.468 114.652 21.736 114.796 20.992ZM131.032 21.064C131.128 20.608 131.176 20.116 131.176 19.588C131.176 17.98 130.696 16.72 129.736 15.808C128.8 14.872 127.624 14.404 126.208 14.404C125.152 14.404 124.12 14.668 123.112 15.196C122.104 15.7 121.228 16.456 120.484 17.464C119.74 18.448 119.248 19.624 119.008 20.992C118.912 21.448 118.864 21.94 118.864 22.468C118.864 24.1 119.332 25.396 120.268 26.356C121.228 27.292 122.416 27.76 123.832 27.76C124.888 27.76 125.92 27.496 126.928 26.968C127.936 26.44 128.812 25.672 129.556 24.664C130.3 23.632 130.792 22.432 131.032 21.064ZM152.371 10.84C154.459 10.84 156.115 11.404 157.339 12.532C158.587 13.636 159.211 15.232 159.211 17.32C159.211 17.848 159.151 18.508 159.031 19.3L156.943 31H152.875L154.855 19.912C154.951 19.24 154.999 18.76 154.999 18.472C154.999 17.152 154.627 16.144 153.883 15.448C153.163 14.752 152.155 14.404 150.859 14.404C149.299 14.404 147.979 14.884 146.899 15.844C145.843 16.78 145.171 18.136 144.883 19.912V19.804L142.903 31H138.799L142.291 11.164H146.395L145.999 13.468C146.815 12.652 147.775 12.016 148.879 11.56C150.007 11.08 151.171 10.84 152.371 10.84ZM168.226 8.536C167.578 8.536 167.05 8.332 166.642 7.924C166.234 7.516 166.03 7 166.03 6.376C166.03 5.536 166.342 4.816 166.966 4.216C167.614 3.592 168.346 3.28 169.162 3.28C169.81 3.28 170.326 3.484 170.71 3.892C171.118 4.3 171.322 4.816 171.322 5.44C171.322 6.28 171.01 7.012 170.386 7.636C169.762 8.236 169.042 8.536 168.226 8.536ZM169.774 11.164L166.282 31H162.178L165.67 11.164H169.774Z" fill="#BF1A1A"/>
<rect y="36" width="57" height="21" rx="10.5" fill="#FF6C0C"/>
<path d="M23.0615 42.228L22.7815 43.768H20.1915L18.7355 52H16.7615L18.2175 43.768H15.6135L15.8935 42.228H23.0615ZM25.8636 45.616C26.1996 45.1493 26.5916 44.7853 27.0396 44.524C27.4876 44.2627 27.9729 44.132 28.4956 44.132L28.1316 46.19H27.6136C27.0349 46.19 26.5682 46.316 26.2136 46.568C25.8682 46.82 25.6162 47.2493 25.4576 47.856L24.7296 52H22.7556L24.1276 44.244H26.1016L25.8636 45.616ZM30.9497 43.32C30.6417 43.32 30.3944 43.2313 30.2077 43.054C30.0211 42.8767 29.9277 42.6527 29.9277 42.382C29.9277 42.0087 30.0677 41.6913 30.3477 41.43C30.6371 41.1593 30.9731 41.024 31.3557 41.024C31.6544 41.024 31.8971 41.1127 32.0837 41.29C32.2704 41.4673 32.3637 41.6913 32.3637 41.962C32.3637 42.3353 32.2237 42.6573 31.9437 42.928C31.6637 43.1893 31.3324 43.32 30.9497 43.32ZM31.7617 44.244L30.3897 52H28.4157L29.7877 44.244H31.7617ZM35.4622 45.364C35.7796 45.0093 36.1762 44.7153 36.6522 44.482C37.1376 44.2393 37.6649 44.118 38.2342 44.118C38.8129 44.118 39.3216 44.244 39.7602 44.496C40.2082 44.7387 40.5536 45.0933 40.7962 45.56C41.0389 46.0267 41.1602 46.5727 41.1602 47.198C41.1602 47.4873 41.1322 47.786 41.0762 48.094C40.9362 48.8873 40.6562 49.592 40.2362 50.208C39.8162 50.8147 39.3076 51.286 38.7102 51.622C38.1129 51.958 37.4876 52.126 36.8342 52.126C36.2649 52.126 35.7796 52.0093 35.3782 51.776C34.9862 51.5427 34.6876 51.2487 34.4822 50.894L33.6422 55.696H31.6682L33.6842 44.244H35.6582L35.4622 45.364ZM39.0742 48.094C39.1022 47.9073 39.1162 47.7393 39.1162 47.59C39.1162 47.0393 38.9576 46.61 38.6402 46.302C38.3229 45.994 37.9169 45.84 37.4222 45.84C37.0676 45.84 36.7176 45.9333 36.3722 46.12C36.0269 46.2973 35.7282 46.5587 35.4762 46.904C35.2242 47.2493 35.0562 47.6553 34.9722 48.122C34.9349 48.3647 34.9162 48.542 34.9162 48.654C34.9162 49.2047 35.0749 49.634 35.3922 49.942C35.7189 50.25 36.1249 50.404 36.6102 50.404C36.9742 50.404 37.3289 50.3107 37.6742 50.124C38.0196 49.9373 38.3182 49.6713 38.5702 49.326C38.8222 48.9807 38.9902 48.57 39.0742 48.094Z" fill="white"/>
</svg>
